<svg width="979" height="172" viewBox="0 0 979 172" fill="none" xmlns="http://www.w3.org/2000/svg">
<path d="M143.05 77.12C142.4 63.22 139.56 50.8 134.53 39.88C128.75 27.32 120.54 17.5 109.91 10.4C100.81 4.33002 90.12 0.87 77.86 0V72.53H65.21V0C52.95 0.87 42.26 4.33002 33.16 10.4C22.53 17.5 14.32 27.32 8.54001 39.88C3.52001 50.8 0.67002 63.23 0.0200195 77.12H35.44V77.06H107.64V77.12H143.06H143.05ZM35.84 72.52C36.51 66.26 37.82 60.61 39.74 55.6C42.75 47.81 46.98 41.81 52.45 37.56C54.96 35.62 57.66 34.13 60.55 33.09V72.52H35.83H35.84ZM82.51 72.52V33.09C85.4 34.14 88.1 35.62 90.61 37.56C96.08 41.8 100.33 47.81 103.32 55.6C105.26 60.61 106.56 66.26 107.22 72.52H82.5H82.51Z" fill="#071938"/>
<path d="M0.0100098 89.78C0.66001 103.68 3.51 116.1 8.53 127.02C14.32 139.58 22.52 149.41 33.15 156.5C42.25 162.57 52.94 166.03 65.2 166.9V94.42H77.85V166.9C90.11 166.03 100.8 162.57 109.9 156.5C120.53 149.41 128.75 139.58 134.52 127.02C139.55 116.1 142.39 103.67 143.04 89.78H0H0.0100098ZM60.55 134.01C57.66 132.94 54.96 131.43 52.45 129.45C46.98 125.14 42.75 119.08 39.74 111.3C37.81 106.3 36.51 100.67 35.84 94.43H60.56V134.01H60.55ZM103.31 111.3C100.31 119.09 96.07 125.14 90.6 129.45C88.09 131.44 85.39 132.95 82.5 134.01V94.43H107.22C106.55 100.67 105.26 106.31 103.32 111.3H103.31Z" fill="#071938"/>
<path d="M249.8 72.5H202.1V27.6H181.05V136.73H202.1V89.5H249.8V136.73H270.85V27.6H249.8V72.5Z" fill="#071938"/>
<path d="M338.35 61.43C332.53 58 325.72 56.29 317.93 56.29C310.14 56.29 302.89 58.08 296.81 61.67C290.73 65.26 286.03 70.19 282.7 76.48C279.37 82.77 277.71 90.02 277.71 98.23C277.71 106.44 279.4 113.27 282.78 119.35C286.16 125.43 290.89 130.16 296.97 133.54C303.05 136.92 310.04 138.61 317.94 138.61C324.07 138.61 329.63 137.46 334.62 135.18C339.61 132.89 343.82 129.78 347.25 125.83C350.68 121.88 353.12 117.46 354.58 112.58H333.07C331.82 115.18 329.93 117.31 327.38 118.97C324.83 120.63 321.64 121.46 317.79 121.46C313.94 121.46 310.56 120.6 307.66 118.89C304.75 117.18 302.49 114.74 300.88 111.56C299.55 108.95 298.8 105.95 298.57 102.6H356.46C356.67 101.25 356.77 99.92 356.77 98.62V95.11C356.77 87.73 355.16 81.13 351.94 75.31C348.72 69.49 344.2 64.86 338.38 61.43H338.35ZM298.95 89.8C299.37 87.34 300.04 85.14 301.01 83.25C302.73 79.92 305.09 77.46 308.1 75.84C311.11 74.23 314.39 73.42 317.92 73.42C322.8 73.42 326.89 74.88 330.16 77.79C333.43 80.7 335.23 84.7 335.54 89.79H298.95V89.8Z" fill="#071938"/>
<path d="M417.24 60.03C411.83 57.54 405.44 56.29 398.06 56.29C391.61 56.29 385.77 57.43 380.52 59.72C375.27 62.01 371.06 65.2 367.89 69.31C364.72 73.42 362.87 78.27 362.36 83.89H382.78C383.4 80.36 385.09 77.73 387.85 76.02C390.6 74.31 393.95 73.45 397.91 73.45C401.55 73.45 404.46 74.07 406.64 75.32C408.82 76.57 410.43 78.46 411.47 81.01C412.51 83.56 413.03 86.75 413.03 90.6H393.54C386.06 90.6 379.85 91.64 374.91 93.72C369.97 95.8 366.28 98.66 363.84 102.29C361.4 105.93 360.18 110.14 360.18 114.92C360.18 119.29 361.19 123.26 363.22 126.85C365.25 130.44 368.39 133.3 372.65 135.42C376.91 137.55 382.32 138.62 388.86 138.62C391.98 138.62 394.84 138.28 397.43 137.61C400.03 136.93 402.37 135.97 404.44 134.73C406.52 133.48 408.34 132.03 409.9 130.37C411.46 128.71 412.81 126.84 413.95 124.76L416.29 136.76H434.06V88.12C434.06 81.26 432.6 75.49 429.69 70.82C426.78 66.14 422.62 62.56 417.22 60.06L417.24 60.03ZM412.1 103.68C411.79 106.28 411.19 108.7 410.31 110.93C409.43 113.17 408.21 115.14 406.65 116.85C405.09 118.56 403.24 119.92 401.11 120.9C398.98 121.89 396.56 122.38 393.86 122.38C391.57 122.38 389.55 122.02 387.78 121.29C386.01 120.56 384.66 119.52 383.73 118.17C382.79 116.82 382.33 115.11 382.33 113.03C382.33 111.16 382.8 109.5 383.73 108.04C384.67 106.59 386.15 105.47 388.17 104.69C390.2 103.91 392.82 103.52 396.04 103.52H412.1V103.68Z" fill="#071938"/>
<path d="M463.07 24.49H442.02V136.74H463.07V24.49Z" fill="#071938"/>
<path d="M500.95 36.8H482.24L479.9 58.16H466.49V75.78H479.9V109.14C479.9 116.1 481.04 121.59 483.33 125.59C485.61 129.59 488.81 132.45 492.92 134.16C497.02 135.87 501.83 136.73 507.34 136.73H521.53V118.8H511.24C507.5 118.8 504.85 118.12 503.29 116.77C501.73 115.42 500.95 112.98 500.95 109.44V75.77H521.68V58.15H500.95V36.79V36.8Z" fill="#071938"/>
<path d="M590.75 60.42C586.28 57.67 580.77 56.29 574.23 56.29C568.51 56.29 563.5 57.54 559.19 60.03C554.88 62.52 551.42 65.8 548.82 69.85V24.48H527.77V136.73H548.82V95.1C548.82 90.73 549.62 86.97 551.24 83.8C552.85 80.63 555.06 78.21 557.87 76.55C560.68 74.89 563.79 74.06 567.22 74.06C572.83 74.06 576.94 75.75 579.54 79.13C582.14 82.51 583.44 87.31 583.44 93.55V136.73H604.33V91.68C604.33 83.99 603.18 77.55 600.9 72.35C598.61 67.15 595.23 63.18 590.77 60.42H590.75Z" fill="#071938"/>
<path d="M647.81 108.83L625.36 58.16H602.44L633.94 128H638.61L619.59 171.03H641.89L690.37 58.16H668.08L647.81 108.83Z" fill="#071938"/>
<path d="M764.52 43.82V27.6H690.32V45.06H740.36L690 120.52V136.73H764.84V119.27H714.01L764.52 43.82Z" fill="#071938"/>
<path d="M826.85 61.43C821.03 58 814.22 56.29 806.43 56.29C798.64 56.29 791.39 58.08 785.31 61.67C779.23 65.26 774.53 70.19 771.2 76.48C767.87 82.77 766.21 90.02 766.21 98.23C766.21 106.44 767.9 113.27 771.28 119.35C774.66 125.43 779.39 130.16 785.47 133.54C791.55 136.92 798.54 138.61 806.44 138.61C812.57 138.61 818.13 137.46 823.12 135.18C828.11 132.89 832.32 129.78 835.75 125.83C839.18 121.88 841.62 117.46 843.08 112.58H821.57C820.32 115.18 818.43 117.31 815.88 118.97C813.33 120.63 810.14 121.46 806.29 121.46C802.44 121.46 799.06 120.6 796.16 118.89C793.25 117.18 790.99 114.74 789.38 111.56C788.05 108.95 787.3 105.95 787.07 102.6H844.96C845.17 101.25 845.27 99.92 845.27 98.62V95.11C845.27 87.73 843.66 81.13 840.44 75.31C837.22 69.49 832.7 64.86 826.88 61.43H826.85ZM787.45 89.8C787.87 87.34 788.54 85.14 789.51 83.25C791.23 79.92 793.59 77.46 796.6 75.84C799.61 74.23 802.89 73.42 806.42 73.42C811.3 73.42 815.39 74.88 818.66 77.79C821.93 80.7 823.73 84.7 824.04 89.79H787.45V89.8Z" fill="#071938"/>
<path d="M900.74 56.29C896.27 56.29 892.19 56.97 888.5 58.32C884.81 59.67 881.54 61.54 878.68 63.93C875.82 66.32 873.46 69.23 871.59 72.66L869.56 58.16H850.85V136.73H871.9V100.41C871.9 96.15 872.42 92.61 873.46 89.81C874.5 87 876 84.8 877.98 83.18C879.95 81.57 882.27 80.4 884.92 79.67C887.57 78.94 890.45 78.58 893.57 78.58H900.74V56.29Z" fill="#071938"/>
<path d="M973.47 76.01C969.99 69.83 965.26 64.99 959.28 61.51C953.3 58.03 946.52 56.29 938.93 56.29C931.34 56.29 924.69 58.03 918.66 61.51C912.63 64.99 907.88 69.83 904.39 76.01C900.91 82.19 899.17 89.39 899.17 97.6C899.17 105.81 900.91 112.7 904.39 118.88C907.87 125.07 912.6 129.9 918.58 133.38C924.56 136.86 931.29 138.6 938.77 138.6C946.25 138.6 953.16 136.86 959.19 133.38C965.22 129.9 969.97 125.07 973.45 118.88C976.93 112.7 978.67 105.55 978.67 97.44C978.67 89.33 976.93 82.19 973.45 76L973.47 76.01ZM954.76 110.23C953.15 113.66 950.96 116.21 948.21 117.87C945.45 119.53 942.31 120.36 938.78 120.36C935.45 120.36 932.41 119.53 929.66 117.87C926.9 116.21 924.72 113.66 923.11 110.23C921.5 106.8 920.69 102.54 920.69 97.45C920.69 92.36 921.49 88.12 923.11 84.74C924.72 81.37 926.93 78.82 929.74 77.1C932.55 75.39 935.61 74.53 938.94 74.53C942.27 74.53 945.46 75.39 948.22 77.1C950.97 78.81 953.16 81.36 954.77 84.74C956.38 88.12 957.19 92.35 957.19 97.45C957.19 102.55 956.38 106.8 954.77 110.23H954.76Z" fill="#071938"/>
</svg>
